{
    "accessors" : [
        {
            "bufferView" : 0,
            "componentType" : 5123,
            "count" : 6,
            "max" : [
                3
            ],
            "min" : [
                0
            ],
            "type" : "SCALAR"
        },
        {
            "bufferView" : 1,
            "componentType" : 5126,
            "count" : 4,
            "max" : [
                0.9999980926513672,
                -2.084088350784441e-07,
                -15.722810745239258
            ],
            "min" : [
                -1.0,
                -2.2930386478492437e-07,
                -16.714000701904297
            ],
            "type" : "VEC3"
        },
        {
            "bufferView" : 2,
            "componentType" : 5126,
            "count" : 4,
            "max" : [
                0.0,
                1.0,
                -2.1080753143110087e-08
            ],
            "min" : [
                0.0,
                1.0,
                -2.1080753143110087e-08
            ],
            "type" : "VEC3"
        },
        {
            "bufferView" : 3,
            "componentType" : 5123,
            "count" : 6,
            "max" : [
                3
            ],
            "min" : [
                0
            ],
            "type" : "SCALAR"
        },
        {
            "bufferView" : 4,
            "componentType" : 5126,
            "count" : 4,
            "max" : [
                0.9999980926513672,
                -2.084088350784441e-07,
                19.324363708496094
            ],
            "min" : [
                -1.0,
                -2.2930386478492437e-07,
                -16.714000701904297
            ],
            "type" : "VEC3"
        },
        {
            "bufferView" : 5,
            "componentType" : 5126,
            "count" : 4,
            "max" : [
                0.0,
                0.9999999403953552,
                -5.797995972223191e-10
            ],
            "min" : [
                0.0,
                0.9999999403953552,
                -5.797995972223191e-10
            ],
            "type" : "VEC3"
        },
        {
            "bufferView" : 6,
            "componentType" : 5123,
            "count" : 6,
            "max" : [
                3
            ],
            "min" : [
                0
            ],
            "type" : "SCALAR"
        },
        {
            "bufferView" : 7,
            "componentType" : 5126,
            "count" : 4,
            "max" : [
                1.0,
                0.0,
                1.0
            ],
            "min" : [
                -1.0,
                -2.2930386478492437e-07,
                -16.714000701904297
            ],
            "type" : "VEC3"
        },
        {
            "bufferView" : 8,
            "componentType" : 5126,
            "count" : 4,
            "max" : [
                0.0,
                1.0,
                -1.2944781246915227e-08
            ],
            "min" : [
                0.0,
                1.0,
                -1.2944781246915227e-08
            ],
            "type" : "VEC3"
        },
        {
            "bufferView" : 9,
            "componentType" : 5123,
            "count" : 2157,
            "max" : [
                736
            ],
            "min" : [
                0
            ],
            "type" : "SCALAR"
        },
        {
            "bufferView" : 10,
            "componentType" : 5126,
            "count" : 737,
            "max" : [
                1.0,
                1.2665987014770508e-07,
                1.0
            ],
            "min" : [
                -1.0,
                -2.6046302536997246e-07,
                -19.214223861694336
            ],
            "type" : "VEC3"
        },
        {
            "bufferView" : 11,
            "componentType" : 5126,
            "count" : 737,
            "max" : [
                1.2516976788390366e-08,
                1.0,
                -7.883649288942252e-09
            ],
            "min" : [
                -4.354242122417418e-08,
                0.9999999403953552,
                -3.7836343835806474e-08
            ],
            "type" : "VEC3"
        }
    ],
    "asset" : {
        "generator" : "Khronos Blender glTF 2.0 exporter",
        "version" : "2.0"
    },
    "bufferViews" : [
        {
            "buffer" : 0,
            "byteLength" : 12,
            "byteOffset" : 0,
            "target" : 34963
        },
        {
            "buffer" : 0,
            "byteLength" : 48,
            "byteOffset" : 12,
            "target" : 34962
        },
        {
            "buffer" : 0,
            "byteLength" : 48,
            "byteOffset" : 60,
            "target" : 34962
        },
        {
            "buffer" : 0,
            "byteLength" : 12,
            "byteOffset" : 108,
            "target" : 34963
        },
        {
            "buffer" : 0,
            "byteLength" : 48,
            "byteOffset" : 120,
            "target" : 34962
        },
        {
            "buffer" : 0,
            "byteLength" : 48,
            "byteOffset" : 168,
            "target" : 34962
        },
        {
            "buffer" : 0,
            "byteLength" : 12,
            "byteOffset" : 216,
            "target" : 34963
        },
        {
            "buffer" : 0,
            "byteLength" : 48,
            "byteOffset" : 228,
            "target" : 34962
        },
        {
            "buffer" : 0,
            "byteLength" : 48,
            "byteOffset" : 276,
            "target" : 34962
        },
        {
            "buffer" : 0,
            "byteLength" : 4314,
            "byteOffset" : 324,
            "target" : 34963
        },
        {
            "buffer" : 0,
            "byteLength" : 8844,
            "byteOffset" : 4640,
            "target" : 34962
        },
        {
            "buffer" : 0,
            "byteLength" : 8844,
            "byteOffset" : 13484,
            "target" : 34962
        }
    ],
    "buffers" : [
        {
            "byteLength" : 22328,
            "uri" : "Menu-Variante-1-favorit.bin"
        }
    ],
    "meshes" : [
        {
            "name" : "Plane.027",
            "primitives" : [
                {
                    "attributes" : {
                        "NORMAL" : 2,
                        "POSITION" : 1
                    },
                    "indices" : 0
                }
            ]
        },
        {
            "name" : "Plane.042",
            "primitives" : [
                {
                    "attributes" : {
                        "NORMAL" : 5,
                        "POSITION" : 4
                    },
                    "indices" : 3
                }
            ]
        },
        {
            "name" : "Plane.026",
            "primitives" : [
                {
                    "attributes" : {
                        "NORMAL" : 8,
                        "POSITION" : 7
                    },
                    "indices" : 6
                }
            ]
        },
        {
            "name" : "Plane.041",
            "primitives" : [
                {
                    "attributes" : {
                        "NORMAL" : 11,
                        "POSITION" : 10
                    },
                    "indices" : 9
                }
            ]
        }
    ],
    "nodes" : [
        {
            "name" : "Camera",
            "rotation" : [
                0.483536034822464,
                0.33687159419059753,
                -0.20870360732078552,
                0.7804827094078064
            ],
            "translation" : [
                7.481131553649902,
                5.839001655578613,
                6.5076398849487305
            ]
        },
        {
            "name" : "Lamp",
            "rotation" : [
                0.16907575726509094,
                0.7558802962303162,
                -0.27217137813568115,
                0.570947527885437
            ],
            "scale" : [
                1.0,
                1.0,
                0.9999999403953552
            ],
            "translation" : [
                4.076245307922363,
                6.399198532104492,
                -1.0054539442062378
            ]
        },
        {
            "mesh" : 1,
            "name" : "Plane.022",
            "rotation" : [
                0.0,
                0.3851008117198944,
                -0.0,
                0.9228745102882385
            ],
            "scale" : [
                0.4871085286140442,
                1.0,
                0.28510984778404236
            ],
            "translation" : [
                2.309737205505371,
                0.006317794322967529,
                3.7446417808532715
            ]
        },
        {
            "mesh" : 2,
            "name" : "Plane.023",
            "rotation" : [
                0.09970176219940186,
                -0.8913810849189758,
                0.2388448566198349,
                0.37209200859069824
            ],
            "scale" : [
                -0.4871085286140442,
                -0.18842467665672302,
                -0.03421859070658684
            ],
            "translation" : [
                -0.7252144813537598,
                0.5748807787895203,
                0.7411293983459473
            ]
        },
        {
            "mesh" : 0,
            "name" : "Plane.024",
            "rotation" : [
                0.6525362133979797,
                0.272390216588974,
                -0.2723902463912964,
                0.6525362730026245
            ],
            "scale" : [
                0.4871084988117218,
                1.0,
                0.28510984778404236
            ],
            "translation" : [
                -1.0773658752441406,
                -4.476409912109375,
                0.3928236961364746
            ]
        },
        {
            "mesh" : 3,
            "name" : "Plane.037",
            "rotation" : [
                0.6525708436965942,
                0.272307425737381,
                -0.272307425737381,
                0.6525708436965942
            ],
            "scale" : [
                0.4871085286140442,
                1.0,
                0.28510984778404236
            ],
            "translation" : [
                -0.7042331695556641,
                0.8771001696586609,
                0.7618818283081055
            ]
        }
    ],
    "scene" : 0,
    "scenes" : [
        {
            "name" : "Scene",
            "nodes" : [
                1,
                0,
                2,
                3,
                4,
                5
            ]
        }
    ]
}
